<?xml version="1.0" encoding="UTF-8" standalone="no"?>
<svg
   xmlns:dc="http://purl.org/dc/elements/1.1/"
   xmlns:cc="http://creativecommons.org/ns#"
   xmlns:rdf="http://www.w3.org/1999/02/22-rdf-syntax-ns#"
   xmlns:svg="http://www.w3.org/2000/svg"
   xmlns="http://www.w3.org/2000/svg"
   xmlns:sodipodi="http://sodipodi.sourceforge.net/DTD/sodipodi-0.dtd"
   xmlns:inkscape="http://www.inkscape.org/namespaces/inkscape"
   sodipodi:docname="logo.svg"
   inkscape:version="1.0 (4035a4fb49, 2020-05-01)"
   id="svg8"
   version="1.1"
   viewBox="0 0 102.6146 17.491514"
   height="17.491514mm"
   width="102.6146mm">
  <defs
     id="defs2">
    <rect
       id="rect849"
       height="25.123337"
       width="118.93494"
       y="90.738007"
       x="33.408691" />
  </defs>
  <sodipodi:namedview
     inkscape:window-maximized="1"
     inkscape:window-y="-9"
     inkscape:window-x="-9"
     inkscape:window-height="1001"
     inkscape:window-width="1920"
     fit-margin-bottom="0"
     fit-margin-right="0"
     fit-margin-left="0"
     fit-margin-top="0"
     showgrid="false"
     inkscape:document-rotation="0"
     inkscape:current-layer="layer1"
     inkscape:document-units="mm"
     inkscape:cy="33.18632"
     inkscape:cx="207.98292"
     inkscape:zoom="2.8"
     inkscape:pageshadow="2"
     inkscape:pageopacity="0.0"
     borderopacity="1.0"
     bordercolor="#666666"
     pagecolor="#ffffff"
     id="base" />
  <metadata
     id="metadata5">
    <rdf:RDF>
      <cc:Work
         rdf:about="">
        <dc:format>image/svg+xml</dc:format>
        <dc:type
           rdf:resource="http://purl.org/dc/dcmitype/StillImage" />
        <dc:title></dc:title>
      </cc:Work>
    </rdf:RDF>
  </metadata>
  <g
     transform="translate(-28.896799,-87.594467)"
     id="layer1"
     inkscape:groupmode="layer"
     inkscape:label="Layer 1">
    <rect
       y="88.492432"
       x="29.794764"
       height="15.695584"
       width="100.81867"
       id="rect853"
       style="opacity:1;fill:#ffffff;fill-opacity:1;fill-rule:evenodd;stroke:#000000;stroke-width:1.79593;stroke-miterlimit:4;stroke-dasharray:none" />
    <g
       style="font-style:normal;font-weight:normal;font-size:10.5833px;line-height:0;font-family:sans-serif;white-space:pre;shape-inside:url(#rect849);fill:#000000;fill-opacity:1;stroke:none"
       id="text847"
       aria-label="THE PIPEWORKS">
      <path
         id="path1877"
         style="line-height:1.25;letter-spacing:-0.269875px"
         d="m 35.335728,98.769395 h 0.811317 v -5.048771 h -0.950843 v 1.012855 h -1.684646 v -2.382276 h 7.126157 v 2.382276 h -1.694982 v -1.012855 h -1.080034 v 5.048771 h 0.826821 v 1.415935 h -3.35379 z" />
      <path
         id="path1879"
         style="line-height:1.25;letter-spacing:-0.439209px"
         d="M 46.367453,92.351203 H 49.72641 V 93.7723 h -0.82682 v 4.997095 h 0.82682 v 1.415935 h -3.358957 v -1.415935 h 0.816485 v -2.005039 h -3.534657 v 2.005039 h 0.82682 v 1.415935 h -3.35379 v -1.415935 h 0.811318 V 93.7723 h -0.811318 v -1.421097 h 3.35379 V 93.7723 h -0.82682 v 1.627803 h 3.534657 V 93.7723 h -0.816485 z" />
      <path
         id="path1881"
         style="font-style:normal;font-variant:normal;font-weight:bold;font-stretch:normal;line-height:1.25;font-family:Arvo;-inkscape-font-specification:'Arvo Bold'"
         d="m 50.460252,92.351203 h 6.232158 v 2.671663 h -1.684646 v -1.11104 h -2.010207 v 1.545121 h 1.555456 v 1.498611 h -1.555456 v 1.813837 h 2.010207 v -1.390091 h 1.684646 v 2.806026 h -6.232158 v -1.415935 h 0.821653 v -4.857569 h -0.821653 z" />
      <path
         id="path1883"
         style="line-height:1.25;letter-spacing:-0.312208px"
         d="m 59.72064,92.351203 h 3.617338 q 0.604613,0 1.11104,0.191202 0.506428,0.186035 0.873329,0.506427 0.366902,0.320393 0.573607,0.738971 0.206705,0.418578 0.206705,0.873329 0,0.547768 -0.165364,1.028358 -0.160197,0.475421 -0.50126,0.82682 -0.341064,0.351399 -0.862994,0.558104 -0.52193,0.201537 -1.235063,0.201537 h -1.090369 v 1.493444 h 0.7183 v 1.415935 H 59.72064 v -1.415935 h 0.811317 V 93.7723 H 59.72064 Z m 2.526969,1.421097 v 2.103224 h 0.707965 q 0.589109,0 0.93534,-0.248046 0.346231,-0.248046 0.346231,-0.785479 0,-0.50126 -0.32556,-0.785479 -0.325561,-0.28422 -0.956011,-0.28422 z" />
      <path
         id="path1885"
         style="font-style:normal;font-variant:normal;font-weight:bold;font-stretch:normal;line-height:1.25;font-family:Arvo;-inkscape-font-specification:'Arvo Bold'"
         d="m 66.643108,92.351203 h 3.35379 v 1.41593 h -0.826821 v 5.002262 h 0.826821 v 1.415935 h -3.35379 v -1.415935 h 0.811317 v -5.002262 h -0.811317 z" />
      <path
         id="path1887"
         style="line-height:1.25;letter-spacing:-0.254px"
         d="m 70.839221,92.351203 h 3.617339 q 0.604612,0 1.11104,0.191202 0.506427,0.186035 0.873329,0.506427 0.366901,0.320393 0.573606,0.738971 0.206705,0.418578 0.206705,0.873329 0,0.547768 -0.165364,1.028358 -0.160196,0.475421 -0.501259,0.82682 -0.341064,0.351399 -0.862994,0.558104 -0.52193,0.201537 -1.235063,0.201537 h -1.090369 v 1.493444 h 0.7183 v 1.415935 h -3.24527 v -1.415935 h 0.811318 V 93.7723 h -0.811318 z m 2.52697,1.421097 v 2.103224 h 0.707965 q 0.589109,0 0.93534,-0.248046 0.346231,-0.248046 0.346231,-0.785479 0,-0.50126 -0.32556,-0.785479 -0.325561,-0.28422 -0.956011,-0.28422 z" />
      <path
         id="path1889"
         style="line-height:1.25;letter-spacing:0.259292px"
         d="m 77.8199,92.351203 h 6.232158 v 2.671663 h -1.684647 v -1.11104 h -2.010206 v 1.545121 h 1.555455 v 1.498611 h -1.555455 v 1.813837 h 2.010206 v -1.390091 h 1.684647 v 2.806026 H 77.8199 v -1.415935 h 0.821653 V 93.911826 H 77.8199 Z" />
      <path
         id="path1891"
         style="line-height:1.25;letter-spacing:-0.486833px"
         d="m 93.349529,92.351203 h 3.35379 V 93.7723 h -0.707965 l -1.803501,6.41303 h -2.232415 l -1.183387,-4.88858 -1.209224,4.88858 H 87.355082 L 85.520575,93.7723 h -0.790647 v -1.421097 h 3.358957 V 93.7723 H 87.2724 l 1.152381,4.221951 1.390092,-5.627545 h 1.922357 l 1.364253,5.627545 1.157549,-4.221951 h -0.909503 z" />
      <path
         id="path1893"
         style="line-height:1.25;letter-spacing:-0.661458px"
         d="m 100.4436,100.32485 q -0.532261,0 -1.018018,-0.14469 -0.485757,-0.1447 -0.909502,-0.408245 -0.418578,-0.263549 -0.764809,-0.630451 -0.341064,-0.372069 -0.583942,-0.821652 -0.242878,-0.454751 -0.377237,-0.971514 -0.134358,-0.516763 -0.134358,-1.080034 0,-0.563271 0.134358,-1.080034 0.134359,-0.52193 0.377237,-0.971514 0.242878,-0.454751 0.583942,-0.821653 0.346231,-0.372069 0.764809,-0.635618 0.423745,-0.263549 0.909502,-0.408242 0.485757,-0.144694 1.018018,-0.144694 0.53227,0 1.01803,0.144694 0.49092,0.144693 0.9095,0.408242 0.42374,0.263549 0.76481,0.635618 0.34623,0.366902 0.58911,0.821653 0.24804,0.449584 0.3824,0.971514 0.13436,0.516763 0.13436,1.080034 0,0.558104 -0.13436,1.080034 -0.13436,0.516763 -0.3824,0.971514 -0.24288,0.449583 -0.58911,0.821652 -0.34107,0.366902 -0.76481,0.630451 -0.41858,0.263545 -0.9095,0.408245 -0.48576,0.14469 -1.01803,0.14469 z m 0,-1.622634 q 0.44959,0 0.82166,-0.191202 0.37723,-0.19637 0.64595,-0.527098 0.26872,-0.335896 0.41341,-0.775144 0.14986,-0.444416 0.14986,-0.940508 0,-0.50126 -0.14986,-0.945676 -0.14986,-0.444416 -0.42374,-0.775144 -0.26872,-0.335896 -0.64079,-0.527098 -0.37207,-0.19637 -0.81649,-0.19637 -0.444412,0 -0.816481,0.19637 -0.372069,0.191202 -0.640785,0.527098 -0.268717,0.330728 -0.423746,0.775144 -0.149861,0.444416 -0.149861,0.945676 0,0.496092 0.149861,0.940508 0.155029,0.439248 0.423746,0.775144 0.268716,0.330728 0.640785,0.527098 0.372069,0.191202 0.816481,0.191202 z" />
      <path
         id="path1895"
         style="font-style:normal;font-variant:normal;font-weight:bold;font-stretch:normal;line-height:1.25;font-family:Arvo;-inkscape-font-specification:'Arvo Bold'"
         d="m 104.60871,92.351203 h 4.14443 q 0.60462,0 1.08004,0.180867 0.47542,0.180867 0.80098,0.485757 0.32556,0.299722 0.49609,0.702797 0.1757,0.397907 0.1757,0.831988 0,0.397907 -0.0878,0.697629 -0.0827,0.299723 -0.24804,0.532266 -0.1602,0.232543 -0.39791,0.41341 -0.23771,0.175699 -0.5426,0.320393 0.26355,0.134358 0.46508,0.41341 0.20154,0.273884 0.30489,0.713133 l 0.26355,1.018022 h 0.64596 l 0.0103,1.524455 h -2.27375 l -0.31006,-1.860351 q -0.0465,-0.330728 -0.1447,-0.568439 -0.093,-0.242878 -0.25321,-0.392739 -0.1602,-0.155029 -0.39274,-0.227376 -0.22737,-0.07235 -0.5426,-0.07235 h -0.66662 v 1.705317 h 0.7183 v 1.415938 h -3.24527 v -1.415938 h 0.81131 V 93.7723 h -0.81131 z m 2.52697,1.421097 v 1.896519 h 1.02835 q 0.29456,0 0.5271,-0.05168 0.23771,-0.05684 0.40308,-0.170532 0.17053,-0.118855 0.25838,-0.294554 0.093,-0.1757 0.093,-0.418578 0,-0.454751 -0.32556,-0.707965 -0.32557,-0.253214 -0.95602,-0.253214 z" />
      <path
         sodipodi:nodetypes="cccccccccccccccccccccccccccc"
         id="path1897"
         style="font-style:normal;font-variant:normal;font-weight:bold;font-stretch:normal;line-height:1.25;font-family:Arvo;-inkscape-font-specification:'Arvo Bold'"
         d="m 112.52552,92.351203 h 3.35379 V 93.7723 h -0.82682 v 1.853701 l 0.50472,-0.01498 2.00157,-1.745707 v -1.514115 h 2.67167 v 1.52445 h -0.58394 l -2.60966,2.24275 2.50114,2.532137 h 0.63561 v 1.534794 h -2.59931 v -1.534794 l -2.04285,-2.042847 -0.47895,0.0053 v 2.156375 h 0.82682 v 1.415936 h -3.35379 v -1.415936 h 0.81131 V 93.7723 h -0.81131 z" />
      <path
         id="path1899"
         style="font-style:normal;font-variant:normal;font-weight:bold;font-stretch:normal;line-height:1.25;font-family:Arvo;-inkscape-font-specification:'Arvo Bold'"
         d="m 124.8503,94.557779 q -0.0258,-0.180866 -0.12919,-0.341063 -0.0982,-0.160196 -0.25838,-0.273884 -0.15503,-0.118856 -0.35657,-0.186035 -0.19637,-0.06718 -0.41341,-0.06718 -0.19637,0 -0.3669,0.04134 -0.17053,0.04134 -0.29972,0.129191 -0.12402,0.08268 -0.20154,0.21704 -0.0723,0.134358 -0.0723,0.320393 0,0.232543 0.0982,0.372069 0.10335,0.134358 0.25838,0.222208 0.1602,0.08785 0.3514,0.139526 0.1912,0.05168 0.37207,0.113688 l 1.4211,0.475422 q 0.29455,0.103352 0.55293,0.284219 0.25838,0.180867 0.44442,0.439248 0.1912,0.258382 0.29972,0.594277 0.10852,0.335896 0.10852,0.754474 0,0.568439 -0.21187,1.038693 -0.20671,0.470254 -0.58394,0.80615 -0.37724,0.335895 -0.90434,0.521935 -0.5271,0.18603 -1.16788,0.18603 -0.44958,0 -0.85266,-0.10335 -0.39791,-0.0982 -0.72863,-0.28939 -0.33073,-0.191202 -0.57878,-0.454751 -0.24805,-0.268717 -0.38757,-0.604613 h -0.53227 v -1.555455 h 1.87068 v 0.320393 q 0,0.232543 0.0724,0.428913 0.0775,0.196369 0.22738,0.341063 0.14986,0.144693 0.37723,0.227376 0.22738,0.07751 0.53227,0.07751 0.46509,0 0.70796,-0.211873 0.24288,-0.21704 0.24288,-0.599444 0,-0.19637 -0.0879,-0.325561 -0.0827,-0.134358 -0.21704,-0.222208 -0.13436,-0.09302 -0.29972,-0.155029 -0.16536,-0.06201 -0.32556,-0.113688 l -1.18339,-0.382404 q -0.33589,-0.103352 -0.65112,-0.289387 -0.31006,-0.186035 -0.55293,-0.465086 -0.23771,-0.279052 -0.38241,-0.651121 -0.13952,-0.377237 -0.13952,-0.857826 0,-0.558104 0.2067,-0.992185 0.20671,-0.439248 0.57877,-0.73897 0.37207,-0.299723 0.88367,-0.454752 0.51159,-0.155028 1.12137,-0.155028 0.48059,0 0.88884,0.113687 0.40824,0.108521 0.72863,0.294555 0.32556,0.186035 0.54777,0.428913 0.22738,0.237711 0.34623,0.496092 h 0.51676 v 1.560624 h -1.87068 z" />
    </g>
  </g>
</svg>
