<?xml version="1.0" encoding="UTF-8"?>
<svg id="svg8" width="28.6mm" height="8.06mm" version="1.1" viewBox="0 0 28.6 8.06" xmlns="http://www.w3.org/2000/svg" xmlns:cc="http://creativecommons.org/ns#" xmlns:dc="http://purl.org/dc/elements/1.1/" xmlns:rdf="http://www.w3.org/1999/02/22-rdf-syntax-ns#">
 <metadata id="metadata5">
  <rdf:RDF>
   <cc:Work rdf:about="">
    <dc:format>image/svg+xml</dc:format>
    <dc:type rdf:resource="http://purl.org/dc/dcmitype/StillImage"/>
    <dc:title/>
   </cc:Work>
  </rdf:RDF>
 </metadata>
 <g id="layer1" transform="translate(-21.2 -16.2)" fill="#8fbc8f">
  <path id="path839" d="m21.2 16.5q0-0.0952 0.0529-0.159t0.18-0.0635h6.21q0.116 0 0.169 0.0635 0.0635 0.0635 0.0635 0.159v1.12q0 0.18-0.212 0.18h-1.93q-0.127 0-0.127 0.106v6.01q0 0.212-0.18 0.212h-1.78q-0.18 0-0.18-0.201v-5.98q0-0.148-0.106-0.148h-1.95q-0.222 0-0.222-0.18z" style="white-space:pre"/>
  <path id="path841" d="m27.3 24.1q-0.106 0-0.159-0.0952-0.0423-0.106 0.0106-0.254l2.6-7.28q0.0423-0.116 0.106-0.169 0.0635-0.0529 0.19-0.0529h1.84q0.265 0 0.36 0.265l2.57 7.26q0.0318 0.0952 0 0.212t-0.148 0.116h-1.82q-0.169 0-0.222-0.169l-0.466-1.38q-0.0212-0.0423-0.0529-0.0741-0.0212-0.0423-0.106-0.0423h-2.4q-0.116 0-0.148 0.116l-0.497 1.4q-0.0212 0.0635-0.0741 0.106-0.0529 0.0423-0.159 0.0423h-1.43zm4.23-3.27q0.148 0 0.0952-0.201l-0.762-2.13q-0.0212-0.0529-0.0635-0.0529t-0.0635 0.0529l-0.773 2.13q-0.0741 0.201 0.0952 0.201z" style="white-space:pre"/>
  <path id="path843" d="m42.4 23.8q0.0529 0.127-0.0106 0.222-0.0529 0.0952-0.169 0.0952h-1.81q-0.201 0-0.265-0.201l-1.06-2.85q-0.0635-0.159-0.317-0.159h-0.73q-0.0741 0-0.106 0.0423-0.0212 0.0423-0.0212 0.0741v2.8q0 0.286-0.317 0.286h-1.58q-0.138 0-0.19-0.0529-0.0529-0.0635-0.0529-0.19v-7.39q0-0.222 0.18-0.222h3.43q1.48 0 2.3 0.571t0.815 1.63q0 0.519-0.19 0.942t-0.508 0.72q-0.317 0.286-0.72 0.434-0.0952 0.0423-0.0423 0.19l1.37 3.05zm-3.15-4.31q0.508 0 0.773-0.233 0.265-0.243 0.265-0.656 0-0.455-0.307-0.688-0.296-0.243-0.73-0.243h-1.11q-0.222 0-0.222 0.19v1.42q0 0.212 0.159 0.212z" style="white-space:pre"/>
  <path id="path845" d="m48.1 18.2q-0.212-0.233-0.529-0.423-0.307-0.19-0.942-0.19-0.624 0-0.91 0.212-0.286 0.201-0.286 0.476 0 0.116 0.0635 0.243 0.0635 0.116 0.222 0.233 0.169 0.116 0.476 0.19l1.71 0.466q0.995 0.265 1.45 0.868t0.455 1.4q0 0.762-0.402 1.33-0.392 0.561-1.12 0.868-0.73 0.307-1.75 0.307-0.751 0-1.42-0.169-0.656-0.169-1.16-0.476-0.497-0.317-0.751-0.741-0.0635-0.106-0.0529-0.169 0.0106-0.0741 0.116-0.159l0.952-0.656q0.138-0.0952 0.222-0.0741 0.0952 0.0106 0.148 0.0847 0.243 0.317 0.487 0.519 0.243 0.19 0.55 0.286 0.317 0.0847 0.751 0.0847 0.635 0 1.02-0.18 0.381-0.19 0.381-0.561 0-0.148-0.0847-0.275-0.0741-0.138-0.243-0.243-0.159-0.106-0.444-0.18l-1.61-0.423q-0.624-0.169-1.07-0.508-0.444-0.339-0.688-0.794-0.233-0.455-0.233-0.984 0-0.677 0.381-1.23 0.392-0.561 1.1-0.889 0.709-0.328 1.67-0.328 0.614 0 1.16 0.138 0.561 0.138 0.995 0.392 0.444 0.254 0.698 0.593 0.0423 0.0741 0.0635 0.148 0.0318 0.0741-0.0635 0.148l-1.04 0.751q-0.0635 0.0529-0.127 0.0423-0.0529-0.0212-0.159-0.127z" style="white-space:pre"/>
 </g>
</svg>
